<svg xmlns="http://www.w3.org/2000/svg" width="100" height="100" fill="none"><path fill="#000" fill-opacity=".1" d="M47.38 27.682c-.983-8.435-2.023-17.34-2.023-27.682h9.286c0 10.225-1.035 19.12-2.017 27.564-.801 6.881-1.567 13.464-1.71 20.224 4.663-4.864 8.742-10.02 13.014-15.422 5.268-6.66 10.83-13.692 18.143-21.004l6.566 6.566c-7.23 7.23-14.252 12.787-20.918 18.064l-.006.004c-5.43 4.298-10.624 8.41-15.503 13.087 6.735-.142 13.266-.904 20.106-1.702 8.435-.984 17.341-2.024 27.682-2.024v9.286c-10.225 0-19.119-1.035-27.563-2.017l-.006-.001c-6.88-.8-13.46-1.566-20.218-1.709 4.86 4.66 10.014 8.736 15.412 13.006l.008.007c6.66 5.268 13.693 10.83 21.005 18.144l-6.565 6.566c-7.23-7.23-12.788-14.251-18.063-20.917l-.013-.017-.01-.014c-4.293-5.42-8.4-10.607-13.07-15.479.142 6.76.908 13.343 1.709 20.224.983 8.445 2.017 17.339 2.017 27.564h-9.286c0-10.341 1.04-19.247 2.024-27.681l.002-.014c.797-6.836 1.558-13.362 1.7-20.093-4.67 4.872-8.777 10.058-13.07 15.48l-.01.013-.013.017C30.716 74.388 25.158 81.41 17.928 88.64l-6.566-6.566c7.312-7.313 14.344-12.876 21.005-18.144l.008-.007c5.398-4.27 10.553-8.346 15.413-13.005-6.76.142-13.343.908-20.225 1.709-8.444.982-17.338 2.017-27.563 2.017v-9.286c10.341 0 19.247 1.04 27.682 2.024 6.84.798 13.37 1.56 20.106 1.703-4.881-4.68-10.077-8.793-15.509-13.093-6.666-5.276-13.687-10.833-20.917-18.063l6.566-6.566c7.311 7.312 12.874 14.344 18.142 21.004 4.273 5.401 8.351 10.558 13.014 15.421-.143-6.73-.904-13.256-1.701-20.092z"/></svg>