<svg xmlns="http://www.w3.org/2000/svg" width="14" height="14" fill="none"><g clip-path="url(#a)"><path fill="#F63E04" d="M6.633 3.875C6.496 2.695 6.35 1.448 6.35 0h1.3c0 1.431-.145 2.677-.282 3.859-.113.963-.22 1.885-.24 2.831.653-.68 1.224-1.403 1.822-2.159.738-.932 1.517-1.917 2.54-2.94l.92.919c-1.013 1.012-1.996 1.79-2.93 2.529-.76.602-1.487 1.178-2.17 1.833.943-.02 1.857-.127 2.815-.239 1.18-.137 2.427-.283 3.875-.283v1.3c-1.431 0-2.677-.145-3.859-.282-.964-.113-1.885-.22-2.831-.24.68.653 1.402 1.223 2.157 1.821l.002.001c.932.738 1.917 1.516 2.94 2.54l-.919.92c-1.012-1.013-1.79-1.996-2.529-2.929L8.96 9.48l-.002-.002c-.6-.76-1.176-1.485-1.83-2.167.02.946.127 1.868.24 2.831.137 1.182.282 2.428.282 3.859h-1.3c0-1.448.146-2.694.283-3.875v-.002c.112-.957.219-1.871.239-2.813-.654.682-1.23 1.408-1.83 2.167l-.002.002-.001.002c-.739.933-1.517 1.916-2.53 2.928l-.918-.919c1.023-1.024 2.008-1.802 2.94-2.54h.002c.755-.599 1.477-1.17 2.157-1.822-.946.02-1.868.127-2.831.24C2.677 7.505 1.43 7.65 0 7.65v-1.3c1.448 0 2.695.146 3.875.283.958.112 1.872.219 2.815.239-.683-.655-1.41-1.231-2.17-1.833-.934-.739-1.917-1.517-2.93-2.53l.92-.918c1.023 1.023 1.802 2.008 2.54 2.94.598.756 1.169 1.478 1.822 2.16-.02-.943-.127-1.857-.238-2.814z"/></g><defs><clipPath id="a"><path fill="#fff" d="M0 0h14v14H0z"/></clipPath></defs></svg>